<mxfile host="app.diagrams.net" modified="2024-07-21T22:04:48.374Z" agent="Mozilla/5.0 (Windows NT 10.0; Win64; x64) AppleWebKit/537.36 (KHTML, like Gecko) Chrome/126.0.0.0 Safari/537.36" etag="0VU80gUu8o3xnacQMeGz" version="24.7.1" type="device">
  <diagram id="C5RBs43oDa-KdzZeNtuy" name="Page-1">
    <mxGraphModel dx="1434" dy="738" grid="1" gridSize="10" guides="1" tooltips="1" connect="1" arrows="1" fold="1" page="1" pageScale="1" pageWidth="827" pageHeight="1169" math="0" shadow="0">
      <root>
        <mxCell id="WIyWlLk6GJQsqaUBKTNV-0" />
        <mxCell id="WIyWlLk6GJQsqaUBKTNV-1" parent="WIyWlLk6GJQsqaUBKTNV-0" />
        <mxCell id="zkfFHV4jXpPFQw0GAbJ--17" value="Ingrediente" style="swimlane;fontStyle=0;align=center;verticalAlign=top;childLayout=stackLayout;horizontal=1;startSize=26;horizontalStack=0;resizeParent=1;resizeLast=0;collapsible=1;marginBottom=0;rounded=0;shadow=0;strokeWidth=1;" parent="WIyWlLk6GJQsqaUBKTNV-1" vertex="1">
          <mxGeometry x="240" y="20" width="320" height="372" as="geometry">
            <mxRectangle x="550" y="140" width="160" height="26" as="alternateBounds" />
          </mxGeometry>
        </mxCell>
        <mxCell id="zkfFHV4jXpPFQw0GAbJ--18" value="- _precio: float" style="text;align=left;verticalAlign=top;spacingLeft=4;spacingRight=4;overflow=hidden;rotatable=0;points=[[0,0.5],[1,0.5]];portConstraint=eastwest;" parent="zkfFHV4jXpPFQw0GAbJ--17" vertex="1">
          <mxGeometry y="26" width="320" height="26" as="geometry" />
        </mxCell>
        <mxCell id="geR10a15oJZOIPtNDJPB-6" value="- _calorias: int" style="text;align=left;verticalAlign=top;spacingLeft=4;spacingRight=4;overflow=hidden;rotatable=0;points=[[0,0.5],[1,0.5]];portConstraint=eastwest;" parent="zkfFHV4jXpPFQw0GAbJ--17" vertex="1">
          <mxGeometry y="52" width="320" height="26" as="geometry" />
        </mxCell>
        <mxCell id="geR10a15oJZOIPtNDJPB-5" value="- _nombre: str" style="text;align=left;verticalAlign=top;spacingLeft=4;spacingRight=4;overflow=hidden;rotatable=0;points=[[0,0.5],[1,0.5]];portConstraint=eastwest;" parent="zkfFHV4jXpPFQw0GAbJ--17" vertex="1">
          <mxGeometry y="78" width="320" height="26" as="geometry" />
        </mxCell>
        <mxCell id="geR10a15oJZOIPtNDJPB-4" value="- _inventario: float" style="text;align=left;verticalAlign=top;spacingLeft=4;spacingRight=4;overflow=hidden;rotatable=0;points=[[0,0.5],[1,0.5]];portConstraint=eastwest;" parent="zkfFHV4jXpPFQw0GAbJ--17" vertex="1">
          <mxGeometry y="104" width="320" height="26" as="geometry" />
        </mxCell>
        <mxCell id="C6Tgjf_thYMfrWVkSmee-3" value="- _es_vegetariano: bool" style="text;align=left;verticalAlign=top;spacingLeft=4;spacingRight=4;overflow=hidden;rotatable=0;points=[[0,0.5],[1,0.5]];portConstraint=eastwest;" vertex="1" parent="zkfFHV4jXpPFQw0GAbJ--17">
          <mxGeometry y="130" width="320" height="26" as="geometry" />
        </mxCell>
        <mxCell id="zkfFHV4jXpPFQw0GAbJ--23" value="" style="line;html=1;strokeWidth=1;align=left;verticalAlign=middle;spacingTop=-1;spacingLeft=3;spacingRight=3;rotatable=0;labelPosition=right;points=[];portConstraint=eastwest;" parent="zkfFHV4jXpPFQw0GAbJ--17" vertex="1">
          <mxGeometry y="156" width="320" height="8" as="geometry" />
        </mxCell>
        <mxCell id="zkfFHV4jXpPFQw0GAbJ--24" value="+ es_sano() : bool" style="text;align=left;verticalAlign=top;spacingLeft=4;spacingRight=4;overflow=hidden;rotatable=0;points=[[0,0.5],[1,0.5]];portConstraint=eastwest;" parent="zkfFHV4jXpPFQw0GAbJ--17" vertex="1">
          <mxGeometry y="164" width="320" height="26" as="geometry" />
        </mxCell>
        <mxCell id="ZHObDxlknJ5koX04KXQJ-0" value="+ get_precio() : float" style="text;align=left;verticalAlign=top;spacingLeft=4;spacingRight=4;overflow=hidden;rotatable=0;points=[[0,0.5],[1,0.5]];portConstraint=eastwest;" parent="zkfFHV4jXpPFQw0GAbJ--17" vertex="1">
          <mxGeometry y="190" width="320" height="26" as="geometry" />
        </mxCell>
        <mxCell id="geR10a15oJZOIPtNDJPB-7" value="+ get_calorias() : int" style="text;align=left;verticalAlign=top;spacingLeft=4;spacingRight=4;overflow=hidden;rotatable=0;points=[[0,0.5],[1,0.5]];portConstraint=eastwest;" parent="zkfFHV4jXpPFQw0GAbJ--17" vertex="1">
          <mxGeometry y="216" width="320" height="26" as="geometry" />
        </mxCell>
        <mxCell id="geR10a15oJZOIPtNDJPB-8" value="+ get_nombre() : str" style="text;align=left;verticalAlign=top;spacingLeft=4;spacingRight=4;overflow=hidden;rotatable=0;points=[[0,0.5],[1,0.5]];portConstraint=eastwest;" parent="zkfFHV4jXpPFQw0GAbJ--17" vertex="1">
          <mxGeometry y="242" width="320" height="26" as="geometry" />
        </mxCell>
        <mxCell id="geR10a15oJZOIPtNDJPB-9" value="+ get_inventario() : float" style="text;align=left;verticalAlign=top;spacingLeft=4;spacingRight=4;overflow=hidden;rotatable=0;points=[[0,0.5],[1,0.5]];portConstraint=eastwest;" parent="zkfFHV4jXpPFQw0GAbJ--17" vertex="1">
          <mxGeometry y="268" width="320" height="26" as="geometry" />
        </mxCell>
        <mxCell id="zkfFHV4jXpPFQw0GAbJ--25" value="+ get_es_vegetariano() : bool" style="text;align=left;verticalAlign=top;spacingLeft=4;spacingRight=4;overflow=hidden;rotatable=0;points=[[0,0.5],[1,0.5]];portConstraint=eastwest;" parent="zkfFHV4jXpPFQw0GAbJ--17" vertex="1">
          <mxGeometry y="294" width="320" height="26" as="geometry" />
        </mxCell>
        <mxCell id="C6Tgjf_thYMfrWVkSmee-5" value="+ verificar_existencias() : bool" style="text;align=left;verticalAlign=top;spacingLeft=4;spacingRight=4;overflow=hidden;rotatable=0;points=[[0,0.5],[1,0.5]];portConstraint=eastwest;" vertex="1" parent="zkfFHV4jXpPFQw0GAbJ--17">
          <mxGeometry y="320" width="320" height="26" as="geometry" />
        </mxCell>
        <mxCell id="C6Tgjf_thYMfrWVkSmee-4" value="+ descontar_inventario()" style="text;align=left;verticalAlign=top;spacingLeft=4;spacingRight=4;overflow=hidden;rotatable=0;points=[[0,0.5],[1,0.5]];portConstraint=eastwest;" vertex="1" parent="zkfFHV4jXpPFQw0GAbJ--17">
          <mxGeometry y="346" width="320" height="26" as="geometry" />
        </mxCell>
        <mxCell id="C6Tgjf_thYMfrWVkSmee-27" style="edgeStyle=orthogonalEdgeStyle;rounded=0;orthogonalLoop=1;jettySize=auto;html=1;exitX=0.5;exitY=0;exitDx=0;exitDy=0;" edge="1" parent="WIyWlLk6GJQsqaUBKTNV-1" source="geR10a15oJZOIPtNDJPB-0">
          <mxGeometry relative="1" as="geometry">
            <mxPoint x="385" y="400" as="targetPoint" />
          </mxGeometry>
        </mxCell>
        <mxCell id="geR10a15oJZOIPtNDJPB-0" value="Base" style="swimlane;fontStyle=2;align=center;verticalAlign=top;childLayout=stackLayout;horizontal=1;startSize=26;horizontalStack=0;resizeParent=1;resizeLast=0;collapsible=1;marginBottom=0;rounded=0;shadow=0;strokeWidth=1;" parent="WIyWlLk6GJQsqaUBKTNV-1" vertex="1">
          <mxGeometry x="160" y="445" width="450" height="204" as="geometry">
            <mxRectangle x="230" y="140" width="160" height="26" as="alternateBounds" />
          </mxGeometry>
        </mxCell>
        <mxCell id="geR10a15oJZOIPtNDJPB-1" value="- _sabor: str " style="text;align=left;verticalAlign=top;spacingLeft=4;spacingRight=4;overflow=hidden;rotatable=0;points=[[0,0.5],[1,0.5]];portConstraint=eastwest;" parent="geR10a15oJZOIPtNDJPB-0" vertex="1">
          <mxGeometry y="26" width="450" height="26" as="geometry" />
        </mxCell>
        <mxCell id="geR10a15oJZOIPtNDJPB-3" value="" style="line;html=1;strokeWidth=1;align=left;verticalAlign=middle;spacingTop=-1;spacingLeft=3;spacingRight=3;rotatable=0;labelPosition=right;points=[];portConstraint=eastwest;" parent="geR10a15oJZOIPtNDJPB-0" vertex="1">
          <mxGeometry y="52" width="450" height="22" as="geometry" />
        </mxCell>
        <mxCell id="geR10a15oJZOIPtNDJPB-13" value="+ abastecer() " style="text;align=left;verticalAlign=top;spacingLeft=4;spacingRight=4;overflow=hidden;rotatable=0;points=[[0,0.5],[1,0.5]];portConstraint=eastwest;rounded=0;shadow=0;html=0;" parent="geR10a15oJZOIPtNDJPB-0" vertex="1">
          <mxGeometry y="74" width="450" height="26" as="geometry" />
        </mxCell>
        <mxCell id="C6Tgjf_thYMfrWVkSmee-12" value="+ obtener_sabor() : str" style="text;align=left;verticalAlign=top;spacingLeft=4;spacingRight=4;overflow=hidden;rotatable=0;points=[[0,0.5],[1,0.5]];portConstraint=eastwest;rounded=0;shadow=0;html=0;" vertex="1" parent="geR10a15oJZOIPtNDJPB-0">
          <mxGeometry y="100" width="450" height="26" as="geometry" />
        </mxCell>
        <mxCell id="C6Tgjf_thYMfrWVkSmee-11" value="+ verificar_existencias() : bool" style="text;align=left;verticalAlign=top;spacingLeft=4;spacingRight=4;overflow=hidden;rotatable=0;points=[[0,0.5],[1,0.5]];portConstraint=eastwest;rounded=0;shadow=0;html=0;" vertex="1" parent="geR10a15oJZOIPtNDJPB-0">
          <mxGeometry y="126" width="450" height="26" as="geometry" />
        </mxCell>
        <mxCell id="C6Tgjf_thYMfrWVkSmee-10" value="+ descontar_inventario()" style="text;align=left;verticalAlign=top;spacingLeft=4;spacingRight=4;overflow=hidden;rotatable=0;points=[[0,0.5],[1,0.5]];portConstraint=eastwest;rounded=0;shadow=0;html=0;" vertex="1" parent="geR10a15oJZOIPtNDJPB-0">
          <mxGeometry y="152" width="450" height="26" as="geometry" />
        </mxCell>
        <mxCell id="C6Tgjf_thYMfrWVkSmee-28" style="edgeStyle=orthogonalEdgeStyle;rounded=0;orthogonalLoop=1;jettySize=auto;html=1;exitX=0.5;exitY=0;exitDx=0;exitDy=0;entryX=0.5;entryY=1;entryDx=0;entryDy=0;" edge="1" parent="WIyWlLk6GJQsqaUBKTNV-1" source="C6Tgjf_thYMfrWVkSmee-13" target="geR10a15oJZOIPtNDJPB-0">
          <mxGeometry relative="1" as="geometry" />
        </mxCell>
        <mxCell id="C6Tgjf_thYMfrWVkSmee-13" value="Complemento" style="swimlane;fontStyle=2;align=center;verticalAlign=top;childLayout=stackLayout;horizontal=1;startSize=26;horizontalStack=0;resizeParent=1;resizeLast=0;collapsible=1;marginBottom=0;rounded=0;shadow=0;strokeWidth=1;" vertex="1" parent="WIyWlLk6GJQsqaUBKTNV-1">
          <mxGeometry x="160" y="680" width="450" height="140" as="geometry">
            <mxRectangle x="230" y="140" width="160" height="26" as="alternateBounds" />
          </mxGeometry>
        </mxCell>
        <mxCell id="C6Tgjf_thYMfrWVkSmee-14" value="+ abastecer()" style="text;align=left;verticalAlign=top;spacingLeft=4;spacingRight=4;overflow=hidden;rotatable=0;points=[[0,0.5],[1,0.5]];portConstraint=eastwest;" vertex="1" parent="C6Tgjf_thYMfrWVkSmee-13">
          <mxGeometry y="26" width="450" height="26" as="geometry" />
        </mxCell>
        <mxCell id="C6Tgjf_thYMfrWVkSmee-22" value="+ renovar_inventario()" style="text;align=left;verticalAlign=top;spacingLeft=4;spacingRight=4;overflow=hidden;rotatable=0;points=[[0,0.5],[1,0.5]];portConstraint=eastwest;" vertex="1" parent="C6Tgjf_thYMfrWVkSmee-13">
          <mxGeometry y="52" width="450" height="26" as="geometry" />
        </mxCell>
        <mxCell id="C6Tgjf_thYMfrWVkSmee-21" value="+ verificar_existencias() : bool" style="text;align=left;verticalAlign=top;spacingLeft=4;spacingRight=4;overflow=hidden;rotatable=0;points=[[0,0.5],[1,0.5]];portConstraint=eastwest;" vertex="1" parent="C6Tgjf_thYMfrWVkSmee-13">
          <mxGeometry y="78" width="450" height="26" as="geometry" />
        </mxCell>
        <mxCell id="C6Tgjf_thYMfrWVkSmee-20" value="+ descontar_inventario()" style="text;align=left;verticalAlign=top;spacingLeft=4;spacingRight=4;overflow=hidden;rotatable=0;points=[[0,0.5],[1,0.5]];portConstraint=eastwest;" vertex="1" parent="C6Tgjf_thYMfrWVkSmee-13">
          <mxGeometry y="104" width="450" height="26" as="geometry" />
        </mxCell>
        <mxCell id="C6Tgjf_thYMfrWVkSmee-29" value="IProducto" style="swimlane;fontStyle=2;align=center;verticalAlign=top;childLayout=stackLayout;horizontal=1;startSize=26;horizontalStack=0;resizeParent=1;resizeLast=0;collapsible=1;marginBottom=0;rounded=0;shadow=0;strokeWidth=1;" vertex="1" parent="WIyWlLk6GJQsqaUBKTNV-1">
          <mxGeometry x="160" y="860" width="450" height="110" as="geometry">
            <mxRectangle x="230" y="140" width="160" height="26" as="alternateBounds" />
          </mxGeometry>
        </mxCell>
        <mxCell id="C6Tgjf_thYMfrWVkSmee-30" value="+ calcular_costo() : float" style="text;align=left;verticalAlign=top;spacingLeft=4;spacingRight=4;overflow=hidden;rotatable=0;points=[[0,0.5],[1,0.5]];portConstraint=eastwest;" vertex="1" parent="C6Tgjf_thYMfrWVkSmee-29">
          <mxGeometry y="26" width="450" height="26" as="geometry" />
        </mxCell>
        <mxCell id="C6Tgjf_thYMfrWVkSmee-32" value="+ calcular_rentabilidad() : float" style="text;align=left;verticalAlign=top;spacingLeft=4;spacingRight=4;overflow=hidden;rotatable=0;points=[[0,0.5],[1,0.5]];portConstraint=eastwest;rounded=0;shadow=0;html=0;" vertex="1" parent="C6Tgjf_thYMfrWVkSmee-29">
          <mxGeometry y="52" width="450" height="26" as="geometry" />
        </mxCell>
        <mxCell id="C6Tgjf_thYMfrWVkSmee-33" value="+ calcular_calorias() : float" style="text;align=left;verticalAlign=top;spacingLeft=4;spacingRight=4;overflow=hidden;rotatable=0;points=[[0,0.5],[1,0.5]];portConstraint=eastwest;rounded=0;shadow=0;html=0;" vertex="1" parent="C6Tgjf_thYMfrWVkSmee-29">
          <mxGeometry y="78" width="450" height="26" as="geometry" />
        </mxCell>
        <mxCell id="C6Tgjf_thYMfrWVkSmee-51" style="edgeStyle=orthogonalEdgeStyle;rounded=0;orthogonalLoop=1;jettySize=auto;html=1;entryX=0.5;entryY=1;entryDx=0;entryDy=0;" edge="1" parent="WIyWlLk6GJQsqaUBKTNV-1" source="C6Tgjf_thYMfrWVkSmee-44" target="C6Tgjf_thYMfrWVkSmee-29">
          <mxGeometry relative="1" as="geometry" />
        </mxCell>
        <mxCell id="C6Tgjf_thYMfrWVkSmee-44" value="Base" style="swimlane;fontStyle=2;align=center;verticalAlign=top;childLayout=stackLayout;horizontal=1;startSize=26;horizontalStack=0;resizeParent=1;resizeLast=0;collapsible=1;marginBottom=0;rounded=0;shadow=0;strokeWidth=1;" vertex="1" parent="WIyWlLk6GJQsqaUBKTNV-1">
          <mxGeometry x="160" y="1010" width="450" height="204" as="geometry">
            <mxRectangle x="230" y="140" width="160" height="26" as="alternateBounds" />
          </mxGeometry>
        </mxCell>
        <mxCell id="C6Tgjf_thYMfrWVkSmee-45" value="- _sabor: str " style="text;align=left;verticalAlign=top;spacingLeft=4;spacingRight=4;overflow=hidden;rotatable=0;points=[[0,0.5],[1,0.5]];portConstraint=eastwest;" vertex="1" parent="C6Tgjf_thYMfrWVkSmee-44">
          <mxGeometry y="26" width="450" height="26" as="geometry" />
        </mxCell>
        <mxCell id="C6Tgjf_thYMfrWVkSmee-46" value="" style="line;html=1;strokeWidth=1;align=left;verticalAlign=middle;spacingTop=-1;spacingLeft=3;spacingRight=3;rotatable=0;labelPosition=right;points=[];portConstraint=eastwest;" vertex="1" parent="C6Tgjf_thYMfrWVkSmee-44">
          <mxGeometry y="52" width="450" height="22" as="geometry" />
        </mxCell>
        <mxCell id="C6Tgjf_thYMfrWVkSmee-47" value="+ abastecer() " style="text;align=left;verticalAlign=top;spacingLeft=4;spacingRight=4;overflow=hidden;rotatable=0;points=[[0,0.5],[1,0.5]];portConstraint=eastwest;rounded=0;shadow=0;html=0;" vertex="1" parent="C6Tgjf_thYMfrWVkSmee-44">
          <mxGeometry y="74" width="450" height="26" as="geometry" />
        </mxCell>
        <mxCell id="C6Tgjf_thYMfrWVkSmee-48" value="+ obtener_sabor() : str" style="text;align=left;verticalAlign=top;spacingLeft=4;spacingRight=4;overflow=hidden;rotatable=0;points=[[0,0.5],[1,0.5]];portConstraint=eastwest;rounded=0;shadow=0;html=0;" vertex="1" parent="C6Tgjf_thYMfrWVkSmee-44">
          <mxGeometry y="100" width="450" height="26" as="geometry" />
        </mxCell>
        <mxCell id="C6Tgjf_thYMfrWVkSmee-49" value="+ verificar_existencias() : bool" style="text;align=left;verticalAlign=top;spacingLeft=4;spacingRight=4;overflow=hidden;rotatable=0;points=[[0,0.5],[1,0.5]];portConstraint=eastwest;rounded=0;shadow=0;html=0;" vertex="1" parent="C6Tgjf_thYMfrWVkSmee-44">
          <mxGeometry y="126" width="450" height="26" as="geometry" />
        </mxCell>
        <mxCell id="C6Tgjf_thYMfrWVkSmee-50" value="+ descontar_inventario()" style="text;align=left;verticalAlign=top;spacingLeft=4;spacingRight=4;overflow=hidden;rotatable=0;points=[[0,0.5],[1,0.5]];portConstraint=eastwest;rounded=0;shadow=0;html=0;" vertex="1" parent="C6Tgjf_thYMfrWVkSmee-44">
          <mxGeometry y="152" width="450" height="26" as="geometry" />
        </mxCell>
        <mxCell id="C6Tgjf_thYMfrWVkSmee-78" style="edgeStyle=orthogonalEdgeStyle;rounded=0;orthogonalLoop=1;jettySize=auto;html=1;exitX=0.5;exitY=0;exitDx=0;exitDy=0;entryX=0.5;entryY=1;entryDx=0;entryDy=0;" edge="1" parent="WIyWlLk6GJQsqaUBKTNV-1" source="C6Tgjf_thYMfrWVkSmee-52" target="C6Tgjf_thYMfrWVkSmee-44">
          <mxGeometry relative="1" as="geometry" />
        </mxCell>
        <mxCell id="C6Tgjf_thYMfrWVkSmee-52" value="Copa" style="swimlane;fontStyle=2;align=center;verticalAlign=top;childLayout=stackLayout;horizontal=1;startSize=26;horizontalStack=0;resizeParent=1;resizeLast=0;collapsible=1;marginBottom=0;rounded=0;shadow=0;strokeWidth=1;" vertex="1" parent="WIyWlLk6GJQsqaUBKTNV-1">
          <mxGeometry x="40" y="1280" width="310" height="240" as="geometry">
            <mxRectangle x="230" y="140" width="160" height="26" as="alternateBounds" />
          </mxGeometry>
        </mxCell>
        <mxCell id="C6Tgjf_thYMfrWVkSmee-53" value="- _nombre: str " style="text;align=left;verticalAlign=top;spacingLeft=4;spacingRight=4;overflow=hidden;rotatable=0;points=[[0,0.5],[1,0.5]];portConstraint=eastwest;" vertex="1" parent="C6Tgjf_thYMfrWVkSmee-52">
          <mxGeometry y="26" width="310" height="26" as="geometry" />
        </mxCell>
        <mxCell id="C6Tgjf_thYMfrWVkSmee-68" value="- _precio_publico: float" style="text;align=left;verticalAlign=top;spacingLeft=4;spacingRight=4;overflow=hidden;rotatable=0;points=[[0,0.5],[1,0.5]];portConstraint=eastwest;" vertex="1" parent="C6Tgjf_thYMfrWVkSmee-52">
          <mxGeometry y="52" width="310" height="26" as="geometry" />
        </mxCell>
        <mxCell id="C6Tgjf_thYMfrWVkSmee-67" value="- _tipo_vaso: str" style="text;align=left;verticalAlign=top;spacingLeft=4;spacingRight=4;overflow=hidden;rotatable=0;points=[[0,0.5],[1,0.5]];portConstraint=eastwest;" vertex="1" parent="C6Tgjf_thYMfrWVkSmee-52">
          <mxGeometry y="78" width="310" height="26" as="geometry" />
        </mxCell>
        <mxCell id="C6Tgjf_thYMfrWVkSmee-66" value="- _ingredientes: List" style="text;align=left;verticalAlign=top;spacingLeft=4;spacingRight=4;overflow=hidden;rotatable=0;points=[[0,0.5],[1,0.5]];portConstraint=eastwest;" vertex="1" parent="C6Tgjf_thYMfrWVkSmee-52">
          <mxGeometry y="104" width="310" height="26" as="geometry" />
        </mxCell>
        <mxCell id="C6Tgjf_thYMfrWVkSmee-54" value="" style="line;html=1;strokeWidth=1;align=left;verticalAlign=middle;spacingTop=-1;spacingLeft=3;spacingRight=3;rotatable=0;labelPosition=right;points=[];portConstraint=eastwest;" vertex="1" parent="C6Tgjf_thYMfrWVkSmee-52">
          <mxGeometry y="130" width="310" height="22" as="geometry" />
        </mxCell>
        <mxCell id="C6Tgjf_thYMfrWVkSmee-55" value="+ calcular_costo() : float" style="text;align=left;verticalAlign=top;spacingLeft=4;spacingRight=4;overflow=hidden;rotatable=0;points=[[0,0.5],[1,0.5]];portConstraint=eastwest;rounded=0;shadow=0;html=0;" vertex="1" parent="C6Tgjf_thYMfrWVkSmee-52">
          <mxGeometry y="152" width="310" height="26" as="geometry" />
        </mxCell>
        <mxCell id="C6Tgjf_thYMfrWVkSmee-56" value="+ calcular_calorias() : float" style="text;align=left;verticalAlign=top;spacingLeft=4;spacingRight=4;overflow=hidden;rotatable=0;points=[[0,0.5],[1,0.5]];portConstraint=eastwest;rounded=0;shadow=0;html=0;" vertex="1" parent="C6Tgjf_thYMfrWVkSmee-52">
          <mxGeometry y="178" width="310" height="26" as="geometry" />
        </mxCell>
        <mxCell id="C6Tgjf_thYMfrWVkSmee-57" value="+ calcular_rentabilidad() : float" style="text;align=left;verticalAlign=top;spacingLeft=4;spacingRight=4;overflow=hidden;rotatable=0;points=[[0,0.5],[1,0.5]];portConstraint=eastwest;rounded=0;shadow=0;html=0;" vertex="1" parent="C6Tgjf_thYMfrWVkSmee-52">
          <mxGeometry y="204" width="310" height="26" as="geometry" />
        </mxCell>
        <mxCell id="C6Tgjf_thYMfrWVkSmee-79" style="edgeStyle=orthogonalEdgeStyle;rounded=0;orthogonalLoop=1;jettySize=auto;html=1;entryX=0.5;entryY=1;entryDx=0;entryDy=0;" edge="1" parent="WIyWlLk6GJQsqaUBKTNV-1" source="C6Tgjf_thYMfrWVkSmee-69" target="C6Tgjf_thYMfrWVkSmee-44">
          <mxGeometry relative="1" as="geometry" />
        </mxCell>
        <mxCell id="C6Tgjf_thYMfrWVkSmee-69" value="Malteada" style="swimlane;fontStyle=2;align=center;verticalAlign=top;childLayout=stackLayout;horizontal=1;startSize=26;horizontalStack=0;resizeParent=1;resizeLast=0;collapsible=1;marginBottom=0;rounded=0;shadow=0;strokeWidth=1;" vertex="1" parent="WIyWlLk6GJQsqaUBKTNV-1">
          <mxGeometry x="420" y="1280" width="310" height="240" as="geometry">
            <mxRectangle x="230" y="140" width="160" height="26" as="alternateBounds" />
          </mxGeometry>
        </mxCell>
        <mxCell id="C6Tgjf_thYMfrWVkSmee-70" value="- _nombre: str " style="text;align=left;verticalAlign=top;spacingLeft=4;spacingRight=4;overflow=hidden;rotatable=0;points=[[0,0.5],[1,0.5]];portConstraint=eastwest;" vertex="1" parent="C6Tgjf_thYMfrWVkSmee-69">
          <mxGeometry y="26" width="310" height="26" as="geometry" />
        </mxCell>
        <mxCell id="C6Tgjf_thYMfrWVkSmee-71" value="- _precio_publico: float" style="text;align=left;verticalAlign=top;spacingLeft=4;spacingRight=4;overflow=hidden;rotatable=0;points=[[0,0.5],[1,0.5]];portConstraint=eastwest;" vertex="1" parent="C6Tgjf_thYMfrWVkSmee-69">
          <mxGeometry y="52" width="310" height="26" as="geometry" />
        </mxCell>
        <mxCell id="C6Tgjf_thYMfrWVkSmee-72" value="- _volumen: str" style="text;align=left;verticalAlign=top;spacingLeft=4;spacingRight=4;overflow=hidden;rotatable=0;points=[[0,0.5],[1,0.5]];portConstraint=eastwest;" vertex="1" parent="C6Tgjf_thYMfrWVkSmee-69">
          <mxGeometry y="78" width="310" height="26" as="geometry" />
        </mxCell>
        <mxCell id="C6Tgjf_thYMfrWVkSmee-73" value="- _ingredientes: List" style="text;align=left;verticalAlign=top;spacingLeft=4;spacingRight=4;overflow=hidden;rotatable=0;points=[[0,0.5],[1,0.5]];portConstraint=eastwest;" vertex="1" parent="C6Tgjf_thYMfrWVkSmee-69">
          <mxGeometry y="104" width="310" height="26" as="geometry" />
        </mxCell>
        <mxCell id="C6Tgjf_thYMfrWVkSmee-74" value="" style="line;html=1;strokeWidth=1;align=left;verticalAlign=middle;spacingTop=-1;spacingLeft=3;spacingRight=3;rotatable=0;labelPosition=right;points=[];portConstraint=eastwest;" vertex="1" parent="C6Tgjf_thYMfrWVkSmee-69">
          <mxGeometry y="130" width="310" height="22" as="geometry" />
        </mxCell>
        <mxCell id="C6Tgjf_thYMfrWVkSmee-75" value="+ calcular_costo() : float" style="text;align=left;verticalAlign=top;spacingLeft=4;spacingRight=4;overflow=hidden;rotatable=0;points=[[0,0.5],[1,0.5]];portConstraint=eastwest;rounded=0;shadow=0;html=0;" vertex="1" parent="C6Tgjf_thYMfrWVkSmee-69">
          <mxGeometry y="152" width="310" height="26" as="geometry" />
        </mxCell>
        <mxCell id="C6Tgjf_thYMfrWVkSmee-76" value="+ calcular_calorias() : float" style="text;align=left;verticalAlign=top;spacingLeft=4;spacingRight=4;overflow=hidden;rotatable=0;points=[[0,0.5],[1,0.5]];portConstraint=eastwest;rounded=0;shadow=0;html=0;" vertex="1" parent="C6Tgjf_thYMfrWVkSmee-69">
          <mxGeometry y="178" width="310" height="26" as="geometry" />
        </mxCell>
        <mxCell id="C6Tgjf_thYMfrWVkSmee-77" value="+ calcular_rentabilidad() : float" style="text;align=left;verticalAlign=top;spacingLeft=4;spacingRight=4;overflow=hidden;rotatable=0;points=[[0,0.5],[1,0.5]];portConstraint=eastwest;rounded=0;shadow=0;html=0;" vertex="1" parent="C6Tgjf_thYMfrWVkSmee-69">
          <mxGeometry y="204" width="310" height="26" as="geometry" />
        </mxCell>
        <mxCell id="C6Tgjf_thYMfrWVkSmee-80" value="Heladeria " style="swimlane;fontStyle=2;align=center;verticalAlign=top;childLayout=stackLayout;horizontal=1;startSize=26;horizontalStack=0;resizeParent=1;resizeLast=0;collapsible=1;marginBottom=0;rounded=0;shadow=0;strokeWidth=1;" vertex="1" parent="WIyWlLk6GJQsqaUBKTNV-1">
          <mxGeometry x="220" y="1560" width="310" height="240" as="geometry">
            <mxRectangle x="230" y="140" width="160" height="26" as="alternateBounds" />
          </mxGeometry>
        </mxCell>
        <mxCell id="C6Tgjf_thYMfrWVkSmee-81" value="- _ingredientes: List" style="text;align=left;verticalAlign=top;spacingLeft=4;spacingRight=4;overflow=hidden;rotatable=0;points=[[0,0.5],[1,0.5]];portConstraint=eastwest;" vertex="1" parent="C6Tgjf_thYMfrWVkSmee-80">
          <mxGeometry y="26" width="310" height="26" as="geometry" />
        </mxCell>
        <mxCell id="C6Tgjf_thYMfrWVkSmee-82" value="- _productos: List" style="text;align=left;verticalAlign=top;spacingLeft=4;spacingRight=4;overflow=hidden;rotatable=0;points=[[0,0.5],[1,0.5]];portConstraint=eastwest;" vertex="1" parent="C6Tgjf_thYMfrWVkSmee-80">
          <mxGeometry y="52" width="310" height="26" as="geometry" />
        </mxCell>
        <mxCell id="C6Tgjf_thYMfrWVkSmee-83" value="- _ventas_del_dia: float" style="text;align=left;verticalAlign=top;spacingLeft=4;spacingRight=4;overflow=hidden;rotatable=0;points=[[0,0.5],[1,0.5]];portConstraint=eastwest;" vertex="1" parent="C6Tgjf_thYMfrWVkSmee-80">
          <mxGeometry y="78" width="310" height="26" as="geometry" />
        </mxCell>
        <mxCell id="C6Tgjf_thYMfrWVkSmee-85" value="" style="line;html=1;strokeWidth=1;align=left;verticalAlign=middle;spacingTop=-1;spacingLeft=3;spacingRight=3;rotatable=0;labelPosition=right;points=[];portConstraint=eastwest;" vertex="1" parent="C6Tgjf_thYMfrWVkSmee-80">
          <mxGeometry y="104" width="310" height="22" as="geometry" />
        </mxCell>
        <mxCell id="C6Tgjf_thYMfrWVkSmee-86" value="+ agregar_ingrediente(ingrediente: Ingrediente)" style="text;align=left;verticalAlign=top;spacingLeft=4;spacingRight=4;overflow=hidden;rotatable=0;points=[[0,0.5],[1,0.5]];portConstraint=eastwest;rounded=0;shadow=0;html=0;" vertex="1" parent="C6Tgjf_thYMfrWVkSmee-80">
          <mxGeometry y="126" width="310" height="26" as="geometry" />
        </mxCell>
        <mxCell id="C6Tgjf_thYMfrWVkSmee-87" value="+ agregar_producto(producto: IProducto)" style="text;align=left;verticalAlign=top;spacingLeft=4;spacingRight=4;overflow=hidden;rotatable=0;points=[[0,0.5],[1,0.5]];portConstraint=eastwest;rounded=0;shadow=0;html=0;" vertex="1" parent="C6Tgjf_thYMfrWVkSmee-80">
          <mxGeometry y="152" width="310" height="26" as="geometry" />
        </mxCell>
        <mxCell id="C6Tgjf_thYMfrWVkSmee-88" value="+ producto_mas_rentable() : str" style="text;align=left;verticalAlign=top;spacingLeft=4;spacingRight=4;overflow=hidden;rotatable=0;points=[[0,0.5],[1,0.5]];portConstraint=eastwest;rounded=0;shadow=0;html=0;" vertex="1" parent="C6Tgjf_thYMfrWVkSmee-80">
          <mxGeometry y="178" width="310" height="26" as="geometry" />
        </mxCell>
        <mxCell id="C6Tgjf_thYMfrWVkSmee-89" value="+ vender(nombre_producto: str) : bool" style="text;align=left;verticalAlign=top;spacingLeft=4;spacingRight=4;overflow=hidden;rotatable=0;points=[[0,0.5],[1,0.5]];portConstraint=eastwest;rounded=0;shadow=0;html=0;" vertex="1" parent="C6Tgjf_thYMfrWVkSmee-80">
          <mxGeometry y="204" width="310" height="26" as="geometry" />
        </mxCell>
        <mxCell id="C6Tgjf_thYMfrWVkSmee-90" value="Funciones" style="swimlane;fontStyle=2;align=center;verticalAlign=top;childLayout=stackLayout;horizontal=1;startSize=26;horizontalStack=0;resizeParent=1;resizeLast=0;collapsible=1;marginBottom=0;rounded=0;shadow=0;strokeWidth=1;" vertex="1" parent="WIyWlLk6GJQsqaUBKTNV-1">
          <mxGeometry x="60" y="1850" width="650" height="156" as="geometry">
            <mxRectangle x="230" y="140" width="160" height="26" as="alternateBounds" />
          </mxGeometry>
        </mxCell>
        <mxCell id="C6Tgjf_thYMfrWVkSmee-91" value="+ es_sano(calorias: float, es_vegetariano: bool) : bool" style="text;align=left;verticalAlign=top;spacingLeft=4;spacingRight=4;overflow=hidden;rotatable=0;points=[[0,0.5],[1,0.5]];portConstraint=eastwest;" vertex="1" parent="C6Tgjf_thYMfrWVkSmee-90">
          <mxGeometry y="26" width="650" height="26" as="geometry" />
        </mxCell>
        <mxCell id="C6Tgjf_thYMfrWVkSmee-92" value="+ calcular_calorias(ingredientes_calorias: List[float]) : float" style="text;align=left;verticalAlign=top;spacingLeft=4;spacingRight=4;overflow=hidden;rotatable=0;points=[[0,0.5],[1,0.5]];portConstraint=eastwest;rounded=0;shadow=0;html=0;" vertex="1" parent="C6Tgjf_thYMfrWVkSmee-90">
          <mxGeometry y="52" width="650" height="26" as="geometry" />
        </mxCell>
        <mxCell id="C6Tgjf_thYMfrWVkSmee-93" value="+ calcular_costo(ingrediente1: dict, ingrediente2: dict, ingrediente3: dict) : float" style="text;align=left;verticalAlign=top;spacingLeft=4;spacingRight=4;overflow=hidden;rotatable=0;points=[[0,0.5],[1,0.5]];portConstraint=eastwest;rounded=0;shadow=0;html=0;" vertex="1" parent="C6Tgjf_thYMfrWVkSmee-90">
          <mxGeometry y="78" width="650" height="26" as="geometry" />
        </mxCell>
        <mxCell id="C6Tgjf_thYMfrWVkSmee-95" value="+ calcular_rentabilidad(precio_producto: float, ingrediente1: dict, ingrediente2: dict, ingrediente3: dict) : float" style="text;align=left;verticalAlign=top;spacingLeft=4;spacingRight=4;overflow=hidden;rotatable=0;points=[[0,0.5],[1,0.5]];portConstraint=eastwest;rounded=0;shadow=0;html=0;" vertex="1" parent="C6Tgjf_thYMfrWVkSmee-90">
          <mxGeometry y="104" width="650" height="26" as="geometry" />
        </mxCell>
        <mxCell id="C6Tgjf_thYMfrWVkSmee-94" value="+ mejor_producto(producto1: dict, producto2: dict, producto3: dict, producto4: dict) : str" style="text;align=left;verticalAlign=top;spacingLeft=4;spacingRight=4;overflow=hidden;rotatable=0;points=[[0,0.5],[1,0.5]];portConstraint=eastwest;rounded=0;shadow=0;html=0;" vertex="1" parent="C6Tgjf_thYMfrWVkSmee-90">
          <mxGeometry y="130" width="650" height="26" as="geometry" />
        </mxCell>
      </root>
    </mxGraphModel>
  </diagram>
</mxfile>
